<mxfile host="app.diagrams.net" modified="2023-03-23T17:43:42.992Z" agent="Mozilla/5.0 (Windows NT 10.0; Win64; x64) AppleWebKit/537.36 (KHTML, like Gecko) Chrome/111.0.0.0 Safari/537.36" etag="ce8sLesRoF7Gq3eUNj-u" version="21.1.0" type="device">
  <diagram name="Страница 1" id="KR6PWIzH4SP3cXO3DdD2">
    <mxGraphModel dx="1434" dy="764" grid="1" gridSize="10" guides="1" tooltips="1" connect="1" arrows="1" fold="1" page="1" pageScale="1" pageWidth="827" pageHeight="1169" math="0" shadow="0">
      <root>
        <mxCell id="0" />
        <mxCell id="1" parent="0" />
        <mxCell id="t8jPftZyoMyyNTeirA45-2" value="Разработчик№1" style="rounded=1;whiteSpace=wrap;html=1;" vertex="1" parent="1">
          <mxGeometry x="120" y="130" width="120" height="60" as="geometry" />
        </mxCell>
        <mxCell id="t8jPftZyoMyyNTeirA45-3" value="Разработчик№2" style="rounded=1;whiteSpace=wrap;html=1;" vertex="1" parent="1">
          <mxGeometry x="120" y="250" width="120" height="60" as="geometry" />
        </mxCell>
        <mxCell id="t8jPftZyoMyyNTeirA45-4" value="develop" style="rounded=1;whiteSpace=wrap;html=1;" vertex="1" parent="1">
          <mxGeometry x="294" y="190" width="120" height="60" as="geometry" />
        </mxCell>
        <mxCell id="t8jPftZyoMyyNTeirA45-5" value="Главный разработчик" style="rounded=1;whiteSpace=wrap;html=1;" vertex="1" parent="1">
          <mxGeometry x="210" y="360" width="120" height="60" as="geometry" />
        </mxCell>
        <mxCell id="t8jPftZyoMyyNTeirA45-6" value="Документовод" style="rounded=1;whiteSpace=wrap;html=1;" vertex="1" parent="1">
          <mxGeometry x="294" y="60" width="120" height="60" as="geometry" />
        </mxCell>
        <mxCell id="t8jPftZyoMyyNTeirA45-7" value="main" style="rounded=1;whiteSpace=wrap;html=1;" vertex="1" parent="1">
          <mxGeometry x="480" y="190" width="120" height="60" as="geometry" />
        </mxCell>
        <mxCell id="t8jPftZyoMyyNTeirA45-8" value="" style="endArrow=classic;html=1;rounded=0;" edge="1" parent="1" source="t8jPftZyoMyyNTeirA45-2" target="t8jPftZyoMyyNTeirA45-4">
          <mxGeometry width="50" height="50" relative="1" as="geometry">
            <mxPoint x="390" y="420" as="sourcePoint" />
            <mxPoint x="440" y="370" as="targetPoint" />
          </mxGeometry>
        </mxCell>
        <mxCell id="t8jPftZyoMyyNTeirA45-9" value="" style="endArrow=classic;html=1;rounded=0;" edge="1" parent="1" source="t8jPftZyoMyyNTeirA45-3" target="t8jPftZyoMyyNTeirA45-4">
          <mxGeometry width="50" height="50" relative="1" as="geometry">
            <mxPoint x="390" y="420" as="sourcePoint" />
            <mxPoint x="440" y="370" as="targetPoint" />
          </mxGeometry>
        </mxCell>
        <mxCell id="t8jPftZyoMyyNTeirA45-10" value="" style="endArrow=classic;html=1;rounded=0;" edge="1" parent="1" source="t8jPftZyoMyyNTeirA45-5" target="t8jPftZyoMyyNTeirA45-4">
          <mxGeometry width="50" height="50" relative="1" as="geometry">
            <mxPoint x="390" y="420" as="sourcePoint" />
            <mxPoint x="440" y="370" as="targetPoint" />
          </mxGeometry>
        </mxCell>
        <mxCell id="t8jPftZyoMyyNTeirA45-11" value="" style="endArrow=classic;html=1;rounded=0;" edge="1" parent="1" source="t8jPftZyoMyyNTeirA45-6" target="t8jPftZyoMyyNTeirA45-4">
          <mxGeometry width="50" height="50" relative="1" as="geometry">
            <mxPoint x="390" y="420" as="sourcePoint" />
            <mxPoint x="440" y="370" as="targetPoint" />
          </mxGeometry>
        </mxCell>
        <mxCell id="t8jPftZyoMyyNTeirA45-13" value="" style="endArrow=classic;html=1;rounded=0;" edge="1" parent="1" source="t8jPftZyoMyyNTeirA45-4" target="t8jPftZyoMyyNTeirA45-7">
          <mxGeometry width="50" height="50" relative="1" as="geometry">
            <mxPoint x="390" y="420" as="sourcePoint" />
            <mxPoint x="440" y="370" as="targetPoint" />
          </mxGeometry>
        </mxCell>
        <mxCell id="t8jPftZyoMyyNTeirA45-14" value="тест" style="endArrow=classic;html=1;rounded=0;" edge="1" parent="1" source="t8jPftZyoMyyNTeirA45-5">
          <mxGeometry x="-0.038" y="-10" width="50" height="50" relative="1" as="geometry">
            <mxPoint x="390" y="420" as="sourcePoint" />
            <mxPoint x="450" y="220" as="targetPoint" />
            <mxPoint as="offset" />
          </mxGeometry>
        </mxCell>
      </root>
    </mxGraphModel>
  </diagram>
</mxfile>
